{"title":"Gregory La Cava - Primrose Path (1940)","uid":8277552,"size":1375610132,"categoryP":"video","categoryS":"movies","magnet":"?xt=urn:btih:b8cee77cfbf5f4fcbd02c552d293bac6fc70c1d0&amp;dn=Gregory+La+Cava+-+Primrose+Path+%281940%29&amp;tr=udp%3A%2F%2Ftracker.openbittorrent.com%3A80&amp;tr=udp%3A%2F%2Fopen.demonii.com%3A1337&amp;tr=udp%3A%2F%2Ftracker.coppersurfer.tk%3A6969&amp;tr=udp%3A%2F%2Fexodus.desync.com%3A6969","seeders":2,"leechers":0,"uploader":"moonflux","files":2,"time":1363751600,"description":"Girl from the &quot;wrong&quot; side of the tracks falls in love with an ambitious young man from the &quot;right&quot; side of the tracks. \n\nFormat : AVI\nFormat/Info : Audio Video Interleave\nFile size : 1.28 GiB\nDuration : 1h 33mn\nOverall bit rate : 1 971 Kbps\n\nVideo\nID : 0\nFormat : MPEG-4 Visual\nFormat profile : Advanced Simple@L5\nFormat settings, BVOP : Yes\nFormat settings, QPel : No\nFormat settings, GMC : No warppoints\nFormat settings, Matrix : Custom\nCodec ID : XVID\nCodec ID/Hint : XviD\nDuration : 1h 33mn\nBit rate : 1 838 Kbps\nWidth : 640 pixels\nHeight : 480 pixels\nDisplay aspect ratio : 4:3\nFrame rate : 23.976 fps\nColor space : YUV\nChroma subsampling : 4:2:0\nBit depth : 8 bits\nScan type : Progressive\nBits/(Pixel*Frame) : 0.249\nStream size : 1.19 GiB (93%)\nWriting library : XviD 1.2.1 (UTC 2008-12-04)\n\nAudio\nID : 1\nFormat : MPEG Audio\nFormat version : Version 1\nFormat profile : Layer 3\nMode : Joint stereo\nMode extension : MS Stereo\nCodec ID : 55\nCodec ID/Hint : MP3\nDuration : 1h 33mn\nBit rate mode : Constant\nBit rate : 128 Kbps\nChannel(s) : 2 channels\nSampling rate : 48.0 KHz\nStream size : 85.2 MiB (6%)\nAlignment : Aligned on interleaves\nInterleave, duration : 167 ms (4.00 video frames)\nInterleave, preload duration : 216 ms\nTitle : Primrose Path (1940) WAC DVDRip BBM\nWriting library : LAME3.98r\nEncoding settings : -m j -V 4 -q 2 -lowpass 17 -b 128 ","torrent":{"xt":"urn:btih:b8cee77cfbf5f4fcbd02c552d293bac6fc70c1d0","amp;dn":"Gregory+La+Cava+-+Primrose+Path+%281940%29","amp;tr":["udp%3A%2F%2Ftracker.openbittorrent.com%3A80","udp%3A%2F%2Fopen.demonii.com%3A1337","udp%3A%2F%2Ftracker.coppersurfer.tk%3A6969","udp%3A%2F%2Fexodus.desync.com%3A6969"],"infoHash":"b8cee77cfbf5f4fcbd02c552d293bac6fc70c1d0","infoHashBuffer":{"type":"Buffer","data":[184,206,231,124,251,245,244,252,189,2,197,82,210,147,186,198,252,112,193,208]},"announce":[],"urlList":[]}}